<svg height="512" viewBox="0 0 128 128" width="512" xmlns="http://www.w3.org/2000/svg" xmlns:xlink="http://www.w3.org/1999/xlink"><linearGradient id="a" gradientUnits="userSpaceOnUse" x1="94.049" x2="34.688" y1="98.844" y2="39.484"><stop offset="0" stop-color="#ff8591"/><stop offset="1" stop-color="#f5c464"/></linearGradient><path d="m78.706 68.2q-.063.723-.155 1.435a1.749 1.749 0 0 1 -1.733 1.527 1.727 1.727 0 0 1 -.226-.015 1.749 1.749 0 0 1 -1.512-1.957c.055-.429.1-.863.14-1.3a1.75 1.75 0 1 1 3.486.308zm18.107-32.894v1.652a1.75 1.75 0 0 1 -1.75 1.75h-2.863a13.885 13.885 0 0 1 -13.35 13.342v6.35a1.75 1.75 0 1 1 -3.5 0v-37.65h-6.84a24.547 24.547 0 0 0 -24.52 24.519v5.394a17.116 17.116 0 0 1 2.633-.848 17.415 17.415 0 0 1 7.886 0 17.2 17.2 0 0 1 13.341 16.825v1.72a32.6 32.6 0 0 1 -9.6 23.207 2.214 2.214 0 0 1 -.223.2c-.662.657-1.347 1.274-2.039 1.837a32.187 32.187 0 0 1 -4.43 3.109c.146-.043.294-.073.439-.117a32.741 32.741 0 0 0 10.815-5.716 33.338 33.338 0 0 0 9.658-12.413 1.75 1.75 0 1 1 3.193 1.433 36.788 36.788 0 0 1 -7.229 10.6h20.626a5.541 5.541 0 0 1 5.52 5.53 5.526 5.526 0 0 1 -5.52 5.52h-34.8v6.51a12.033 12.033 0 0 1 -12.02 12.02 1.75 1.75 0 0 1 -1.75-1.75v-16.78h-12.93a5.525 5.525 0 1 1 0-11.05h5.73v-23.86a17.207 17.207 0 0 1 7.2-14.033v-7.338a28.051 28.051 0 0 1 28.02-28.019h10.247a18.077 18.077 0 0 1 18.056 18.056zm-63.523 58.694h-5.73a2.026 2.026 0 0 0 -1.432 3.463 2.006 2.006 0 0 0 1.432.587h5.73zm24.6 4.05h31.17a2.022 2.022 0 0 0 2.02-2.02 2.04 2.04 0 0 0 -2.02-2.03h-24.571a36.291 36.291 0 0 1 -6.597 4.05zm-7.132 2.51c-.078.019-.157.033-.235.05-.129.03-.26.055-.39.083q-1.066.234-2.151.4c-.125.02-.25.044-.376.062-.784.114-1.574.2-2.368.263-.181.014-.363.026-.544.038-.236.015-.47.038-.706.049v14.895a8.533 8.533 0 0 0 6.77-8.339zm-7.58-45.552a13.735 13.735 0 0 0 -6.388 11.632v30.978a29.469 29.469 0 0 0 5.047-.741c.348-.079.682-.166 1.018-.252a28.988 28.988 0 0 0 10.9-5.717 24.779 24.779 0 0 0 1.9-1.716 1.939 1.939 0 0 1 .167-.146 29.133 29.133 0 0 0 8.528-20.686v-1.72a13.706 13.706 0 0 0 -10.627-13.416 13.835 13.835 0 0 0 -6.314 0 13.685 13.685 0 0 0 -4.231 1.784zm45.531-16.3h-9.855v9.855a10.4 10.4 0 0 0 9.855-9.855zm4.6-3.5a14.575 14.575 0 0 0 -14.455-14.458v14.458h14.459zm-29.877-5.187a7.017 7.017 0 0 0 -5 2.069 1.75 1.75 0 0 0 2.476 2.475 3.649 3.649 0 0 1 5.042 0 1.75 1.75 0 0 0 2.475-2.475 7.016 7.016 0 0 0 -4.993-2.069zm-18.321 34.672a1.751 1.751 0 0 0 -1.75 1.75v16.139a1.75 1.75 0 0 0 3.5 0v-16.139a1.75 1.75 0 0 0 -1.75-1.75zm9.344-1.941a1.749 1.749 0 0 0 -1.75 1.75v16.139a1.75 1.75 0 0 0 3.5 0v-16.141a1.75 1.75 0 0 0 -1.75-1.748z" fill="url(#a)"/></svg>